<?xml version="1.0" encoding="UTF-8"?>
<!DOCTYPE svg PUBLIC "-//W3C//DTD SVG 1.1//EN" "http://www.w3.org/Graphics/SVG/1.1/DTD/svg11.dtd">
<!-- Creator: CorelDRAW 2018 (64 Bit) -->
<svg xmlns="http://www.w3.org/2000/svg" xml:space="preserve" width="169.695mm" height="74.1879mm" version="1.1" style="shape-rendering:geometricPrecision; text-rendering:geometricPrecision; image-rendering:optimizeQuality; fill-rule:evenodd; clip-rule:evenodd"
viewBox="0 0 18066.04 7898.19"
 xmlns:xlink="http://www.w3.org/1999/xlink">
 <defs>
  <style type="text/css">
   <![CDATA[
    .fil0 {fill:#F5BF17}
    .fil1 {fill:#FEFEFE;fill-rule:nonzero}
   ]]>
  </style>
 </defs>
 <g id="Camada_x0020_1">
  <metadata id="CorelCorpID_0Corel-Layer"/>
  <g id="_2454332273376">
   <polygon class="fil0" points="-0,5347.87 507.24,5347.87 507.24,7898.19 -0,7898.19 "/>
   <path class="fil1" d="M4359.44 7312.38c0,172.29 -53.43,313.59 -161.96,422.12 -108.58,108.54 -249.84,163.69 -423.89,163.69l-1940.07 0c-170.56,0 -311.88,-55.15 -420.41,-163.69 -110.29,-108.53 -165.4,-249.83 -165.4,-422.12l0 -1978.01 702.98 0 0 1943.56 1705.75 0 0 -1886.69 -2181.31 -2629.29c-151.63,-180.93 -227.42,-380.79 -227.42,-597.9l0 -1578.25c0,-172.29 55.1,-313.59 165.4,-422.13 108.53,-108.53 249.84,-163.67 420.41,-163.67l1940.07 0c174.04,0 315.36,55.19 423.89,163.67 108.48,108.5 161.96,249.93 161.96,422.13l0 1023.2 2956.2 -0.49 -8.69 712.08 -3650.32 -8.87 -0.18 -1691.47 -1705.75 0 0 1669.58 2191.64 2627.57c144.71,175.77 217.11,372.19 217.11,589.3l0 1805.68z"/>
   <path class="fil1" d="M7519.62 7318.69c-3.49,384.59 -200.13,577.75 -591.68,579.49l-1594.04 0c-391.55,0 -588.18,-196.65 -591.66,-591.67l0 -3776.27c3.48,-395.05 200.12,-591.68 591.66,-591.68l1594.04 0c391.56,0 589.94,196.64 591.68,591.68l0 1768.05 -229.72 240.16 -1889.87 0 0 1795.91 1461.78 0 0 -918.84 657.82 0 0 903.18zm-657.82 -2323.18l0 -1493.13 -1461.78 0 0 1493.13 1461.78 0z"/>
   <path class="fil1" d="M11071.86 7312.38c0,172.29 -55.13,313.58 -165.4,422.12 -110.27,108.55 -251.55,163.69 -420.41,163.69l-1991.75 0c-172.3,0 -313.57,-55.14 -422.13,-163.69 -108.54,-108.54 -163.66,-249.83 -163.66,-422.12l0 -6726.47c0,-172.3 55.13,-313.59 163.66,-422.13 108.56,-108.56 249.83,-163.69 422.13,-163.69l1991.75 0c168.86,0 310.13,55.13 420.41,163.69 110.27,108.54 165.4,249.83 165.4,422.13l0 1812.57 -702.97 0 0 -1778.12 -1757.43 0 0 6657.55 1757.43 0 0 -1943.52 702.97 0 0 1977.98z"/>
   <path class="fil1" d="M12128.09 1854.6l-682.29 0 0 -866.34 682.29 0 0 866.34zm-10.33 6043.59l-661.62 0 0 -4958.04 661.62 0 0 4958.04z"/>
   <path class="fil1" d="M14650.68 7898.19l-944.05 0c-393.64,-1.75 -590.45,-198.55 -592.19,-592.19l0 -3776.17 -595.7 0 0 -595.7 595.7 0 0 -1546.7 668.84 0 0 1546.7 867.41 0 0 595.7 -867.41 0 0 3772.69 867.41 0 0 595.68z"/>
   <polygon class="fil1" points="18066.04,2944.28 16875.74,6506.55 16384.99,7898.18 15716.75,7898.18 16217.93,6506.55 14996.33,2944.28 15695.9,2944.28 16536.41,5772.92 17387.35,2944.28 "/>
  </g>
 </g>
</svg>
